<?xml version="1.0" encoding="UTF-8"?>
<svg id="_レイヤー_2" data-name="レイヤー 2" xmlns="http://www.w3.org/2000/svg" viewBox="0 0 821.42 475">
  <defs>
    <style>
      .cls-1 {
        fill: #f24c4c;
      }

      .cls-1, .cls-2 {
        stroke-width: 0px;
      }

      .cls-2 {
        fill: none;
      }
    </style>
  </defs>
  <g id="_レイヤー_4">
    <g>
      <rect class="cls-2" x="0" y="0" width="475" height="475"/>
      <g>
        <path class="cls-1" d="M209.84,352.32c.53-.88,1.09-1.9,1.65-3.02-.94.37-1.94.57-2.95.57-1.32,0-2.65-.33-3.88-1.01-3.86-2.15-5.25-7.02-3.1-10.88.65-1.17,1.2-2.17,1.67-3.06-1.65,1.91-4.17,3.01-6.87,2.72-2.48-.26-4.58-1.62-5.85-3.55l-8.5.13s-3.76-19.13-19.87-28.67c-17.64-10.45-62.13,5.01-62.13,5.01l4.6,13.01s26.08-7.01,40.27-6.58c14.19.44,18.09,17.78,18.09,17.78l-57.97,2.17v13.44l57.97,2.17s-4.57,15.8-18.09,17.78c-14.48,2.13-40.27-6.57-40.27-6.57l-4.6,13.01s44.49,15.46,62.13,5.01c16.11-9.54,19.87-28.68,19.87-28.68l9.5.21v5.15l17.53.39c-.66-2.12-.44-4.5.81-6.54Z"/>
        <path class="cls-1" d="M357,265.66l-13.97-5.68,8.28-17.87-37.66,16.25c-7.34-35.97-22.85-94.38-22.85-94.38,0,0,2.5-11.37,12.25-21.93,9.39-10.18,3.25-23.55,3.25-30.05,0-8.65,20.48-27.54,25.08-31.67-2.56,2.09-10.87,7.46-29.14,8.12,0,0-64.67,0-70.35,3.24-3,1.71-17.89,22.31-17.89,22.31l-.42.12s-49.54,0-55.23,4.06c-15.19,10.85.76,35.63,7.69,45.03l3.43.33c.8-3.94,2.6-10.52,6.34-15.33,5.19-9.21,29.33-4.47,29.33-4.47l-6.91,22.56,28.6,2.75c1.1.1,1.9,1.08,1.8,2.18-.1,1.02-.94,1.78-1.94,1.8-.08,0-.16.01-.24,0l-106.41-10.22c-2.03-.2-3.17,2.28-1.69,3.69l15.76,15.03c.38.36.61.87.62,1.4,0,.53-.19,1.04-.56,1.43l-13.63,14.25c-.83.87-.79,2.25.1,3.06l16.45,15.2c1.67,1.54,1.79,4.12.28,5.81l-8.94,10c-.92,1.03-.65,2.64.55,3.31l15.79,8.84c.52.3.89.81.99,1.41.1.59-.07,1.2-.46,1.65l-7.91,9.03c-.91,1.05-.61,2.68.62,3.32l12.39,6.5c.48.25.84.68.99,1.19.16.52.1,1.08-.17,1.55l-7.8,14.05c-.89,1.6.51,3.52,2.31,3.15l82.95-16.88c.11-.03.23-.04.35-.04.95-.03,1.81.63,2,1.6.22,1.08-.47,2.14-1.56,2.36l-43.15,8.78c.18.21.34.42.52.63,4.9,5.63,13.17,9.11,27.44,11.14l-5.62,22.62c-2.77.15-5.62.92-8.4,2.32l-.27.14c-5.55,3.33-6.6,8.05-6.79,9.93-.23,2.19,1.36,4.16,3.56,4.39s4.16-1.37,4.39-3.57c.06-.52.42-2.31,2.83-3.81,1.6-.78,3.2-1.25,4.75-1.38,1.24,5.58.29,7.87-3.68,15.02-1.07,1.93-.38,4.36,1.55,5.44.62.34,1.28.5,1.94.5,1.41,0,2.77-.74,3.5-2.05,3.6-6.47,5.27-10.37,5.19-15.17.92,1.24,1.62,2.73,2.05,4.44,1.66,6.64-3.79,17.64-6.03,21.32-1.15,1.88-.55,4.34,1.33,5.49.65.4,1.37.59,2.08.59,1.35,0,2.67-.68,3.42-1.91,1-1.65,9.73-16.37,6.97-27.42-1.48-5.9-5.05-10.42-10.07-12.73l-.42-.18,5.73-23.04c4.03.38,8.44.68,13.28.91,13.39.64,29.16.36,43.22-1.27l-5.48,22.04c-2.77.15-5.62.92-8.4,2.32l-.27.14c-5.55,3.33-6.6,8.05-6.79,9.93-.23,2.19,1.37,4.16,3.56,4.39,2.2.23,4.17-1.37,4.39-3.57.06-.52.42-2.31,2.83-3.81,1.61-.78,3.21-1.25,4.75-1.38,1.24,5.58.3,7.87-3.68,15.02-1.07,1.93-.38,4.36,1.55,5.44.62.34,1.28.5,1.94.5,1.41,0,2.77-.74,3.5-2.05,3.6-6.47,5.28-10.37,5.19-15.18.93,1.24,1.63,2.74,2.06,4.45,1.65,6.64-3.8,17.64-6.03,21.32-1.16,1.88-.56,4.34,1.32,5.49.65.4,1.37.59,2.08.59,1.35,0,2.67-.68,3.42-1.91,1.01-1.65,9.73-16.37,6.97-27.42-1.48-5.9-5.05-10.42-10.07-12.73-.14-.06-.28-.12-.42-.18l6.12-24.61c13.72-2.32,24.69-6.2,28.29-12.16l41.38,6.09-14.62-16.22,14.62-5.69ZM249.84,117.65c-5.98,3.53-7.3,6.94-10.96,10.59-1.83-5.49-3.46-9.2-4.75-11.68-1.08-2.08.43-4.56,2.78-4.56h25.53s-8.53,3.25-12.6,5.65Z"/>
        <path class="cls-1" d="M370.5,326.47l-75.83.85c.35.93.66,1.88.9,2.87,3.08,12.33-5.59,27.45-7.41,30.45l82.34,1.84v-36Z"/>
        <path class="cls-1" d="M274.49,352.32c.53-.88,1.09-1.9,1.65-3.02-.94.37-1.94.57-2.95.57-1.32,0-2.65-.33-3.88-1.01-3.86-2.15-5.25-7.02-3.1-10.88.65-1.17,1.2-2.17,1.67-3.06-1.65,1.91-4.17,3.01-6.87,2.72-4.4-.45-7.59-4.39-7.13-8.78.03-.31.08-.68.16-1.09l-23.74.27c.24.7.46,1.41.64,2.15,2.74,10.96-3.81,24.13-6.58,29.02l49.95,1.12c-1.32-2.43-1.35-5.47.19-8Z"/>
      </g>
    </g>
    <g>
      <g>
        <path class="cls-1" d="M458.94,165.87c-3.33-2.3-9.43-5.75-15.64-5.75-1.5,0-3.79.23-5.29,1.38-1.04.8-1.38,1.61-1.38,2.76,0,1.61.23,3.11,4.49,4.03l8.85,1.96c6.79,1.5,10.81,4.26,13.11,6.56,4.83,4.71,5.87,10.58,5.87,15.18,0,6.56-1.73,12.65-6.9,18.06-4.37,4.49-12.65,9.78-27.03,9.78-11.73,0-19.55-3.33-26.11-5.98l-2.53-1.04,8.4-21.62,2.99,2.3c2.88,2.18,8.74,5.63,15.53,5.63,3.8,0,5.41-.92,5.98-1.38,1.27-1.04,1.5-2.3,1.5-3.45,0-.69-.12-1.84-.92-2.64-.92-.92-2.42-1.27-5.29-1.84l-6.79-1.26c-4.37-.8-9.09-2.19-13.34-6.56-3.91-4.02-5.52-8.62-5.52-14.15,0-7.13,2.42-13.23,7.48-18.29,5.87-5.98,14.49-9.89,26.68-9.89,6.09,0,14.03,1.03,23.35,6.67l-7.48,19.55Z"/>
        <path class="cls-1" d="M543.8,207.5c-6.56,6.67-17.25,12.3-31.86,12.3s-25.3-5.63-31.86-12.3c-5.98-6.1-10.7-15.53-10.7-27.83s4.72-21.62,10.7-27.72c6.55-6.67,17.25-12.31,31.86-12.31s25.3,5.63,31.86,12.31c5.98,6.09,10.7,15.53,10.7,27.72s-4.71,21.74-10.7,27.83ZM501.94,168.28c-2.76,2.88-4.37,7.36-4.37,11.5,0,4.37,1.61,8.62,4.37,11.39,2.3,2.3,5.75,3.91,10.01,3.91s7.71-1.61,10-3.91c2.53-2.53,4.37-6.56,4.37-11.39s-1.61-8.86-4.37-11.5c-2.07-2.07-5.41-3.91-10-3.91-4.95,0-8.17,1.96-10.01,3.91Z"/>
        <path class="cls-1" d="M559.34,218.08v-76.71h36.8c12.19,0,19.21,4.95,22.43,8.05,6.33,6.21,7.82,14.03,7.82,20.13s-1.38,13.57-7.59,19.21c-6.09,5.52-13,6.21-18.86,6.21h-13.46v23.12h-27.14ZM586.49,175.64h4.71c1.38,0,4.26-.12,6.21-2.07,1.04-.92,1.84-2.42,1.84-4.71,0-2.42-1.04-3.91-2.07-4.71-1.26-1.04-3.57-1.73-5.63-1.73h-5.06v13.23Z"/>
        <path class="cls-1" d="M629.03,218.08v-76.71h26.8v25.99h17.02v-25.99h26.8v76.71h-26.8v-26.68h-17.02v26.68h-26.8Z"/>
        <path class="cls-1" d="M708.51,218.08v-76.71h27.83v76.71h-27.83Z"/>
        <path class="cls-1" d="M768.17,208.53l-2.07,9.55h-29.44l26.57-76.71h30.82l27.37,76.71h-29.56l-2.53-9.55h-21.16ZM779.44,167.02h-1.04c-.12,3.22-.58,5.87-1.27,8.62l-3.79,14.72h11.16l-3.57-14.72c-.69-2.99-1.15-5.87-1.5-8.62Z"/>
      </g>
      <g>
        <path class="cls-1" d="M409.84,306.62v-76.71h51.75v21.05h-23.92v7.13h21.74v20.13h-21.74v7.36h24.61v21.05h-52.44Z"/>
        <path class="cls-1" d="M492.63,297.07l-2.07,9.55h-29.44l26.57-76.71h30.82l27.37,76.71h-29.56l-2.53-9.55h-21.16ZM503.9,255.55h-1.04c-.12,3.22-.58,5.87-1.27,8.62l-3.79,14.72h11.16l-3.57-14.72c-.69-2.99-1.15-5.87-1.5-8.62Z"/>
        <path class="cls-1" d="M551.07,306.62v-52.44l-15.64.69v-24.96h58.65v24.96l-15.64-.69v52.44h-27.37Z"/>
        <path class="cls-1" d="M644.44,254.4c-3.33-2.3-9.43-5.75-15.64-5.75-1.5,0-3.79.23-5.29,1.38-1.04.81-1.38,1.61-1.38,2.76,0,1.61.23,3.1,4.49,4.02l8.86,1.96c6.79,1.49,10.81,4.25,13.11,6.55,4.83,4.72,5.87,10.58,5.87,15.18,0,6.56-1.73,12.65-6.9,18.06-4.37,4.49-12.65,9.78-27.03,9.78-11.73,0-19.55-3.33-26.11-5.98l-2.53-1.04,8.4-21.62,2.99,2.3c2.88,2.19,8.74,5.64,15.53,5.64,3.8,0,5.41-.92,5.98-1.38,1.27-1.03,1.5-2.3,1.5-3.45,0-.69-.12-1.84-.92-2.65-.92-.92-2.42-1.27-5.29-1.84l-6.79-1.27c-4.37-.8-9.09-2.18-13.34-6.55-3.91-4.03-5.52-8.63-5.52-14.15,0-7.13,2.42-13.23,7.48-18.29,5.87-5.98,14.49-9.89,26.68-9.89,6.09,0,14.03,1.04,23.35,6.67l-7.48,19.55Z"/>
      </g>
    </g>
  </g>
</svg>