<?xml version="1.0" encoding="UTF-8"?>
<svg id="_レイヤー_2" data-name="レイヤー 2" xmlns="http://www.w3.org/2000/svg" viewBox="0 0 270.5 305.09">
  <defs>
    <style>
      .cls-1 {
        fill: #d3170b;
      }

      .cls-1, .cls-2 {
        stroke-width: 0px;
      }

      .cls-2 {
        fill: none;
      }
    </style>
  </defs>
  <g id="_レイヤー_1-2" data-name="レイヤー 1">
    <g>
      <g>
        <g>
          <path class="cls-1" d="M118.37,277.2l-3.41-2.08c.08-.14,8.47-14.03,6.26-22.84-1.02-4.1-3.42-7.2-6.75-8.73-3.39-1.56-7.46-1.33-11.46.66-3.17,1.93-3.75,4.38-3.85,5.36l-3.98-.41c.16-1.58,1.06-5.55,5.83-8.41l.13-.07c5.13-2.57,10.46-2.83,14.99-.75,4.45,2.05,7.63,6.09,8.96,11.39,2.61,10.44-6.35,25.27-6.73,25.89Z"/>
          <path class="cls-1" d="M110.29,262.51l-3.5-1.95c4.84-8.7,5.51-10.94,3.07-19.6l3.85-1.08c2.77,9.87,1.76,13.31-3.43,22.63Z"/>
          <rect class="cls-1" x="100.64" y="223.52" width="29.77" height="4" transform="translate(-131.2 283.23) rotate(-76.04)"/>
        </g>
        <path class="cls-1" d="M109.84,271.99c.53-.88,1.09-1.9,1.65-3.02-.94.37-1.94.57-2.95.57-1.32,0-2.65-.33-3.88-1.01-3.86-2.15-5.25-7.02-3.1-10.88.65-1.17,1.2-2.17,1.67-3.06-1.65,1.91-4.17,3.01-6.87,2.72-2.48-.26-4.58-1.62-5.85-3.55l-8.5.13s-3.76-19.13-19.87-28.67c-17.64-10.45-62.13,5.01-62.13,5.01l4.6,13.01s26.08-7.01,40.27-6.58c14.19.44,18.09,17.78,18.09,17.78l-57.97,2.17v13.44l57.97,2.17s-4.57,15.8-18.09,17.78c-14.48,2.13-40.27-6.57-40.27-6.57l-4.6,13.01s44.49,15.46,62.13,5.01c16.11-9.54,19.87-28.68,19.87-28.68l9.5.21v5.15l17.53.39c-.66-2.12-.44-4.5.81-6.54Z"/>
      </g>
      <g>
        <g>
          <path class="cls-1" d="M183.02,277.2l-3.41-2.08c.08-.14,8.47-14.03,6.26-22.84-1.02-4.1-3.42-7.2-6.75-8.73-3.39-1.56-7.46-1.33-11.46.66-3.17,1.93-3.75,4.38-3.85,5.36l-3.98-.41c.16-1.58,1.06-5.55,5.83-8.41l.13-.07c5.13-2.57,10.46-2.83,14.99-.75,4.45,2.05,7.63,6.09,8.96,11.39,2.61,10.44-6.35,25.27-6.73,25.89Z"/>
          <path class="cls-1" d="M174.94,262.51l-3.5-1.95c4.84-8.7,5.51-10.94,3.07-19.6l3.85-1.08c2.77,9.87,1.76,13.31-3.43,22.63Z"/>
          <rect class="cls-1" x="165.29" y="223.52" width="29.77" height="4" transform="translate(-82.15 345.98) rotate(-76.04)"/>
        </g>
        <g>
          <path class="cls-1" d="M270.5,246.14l-75.83.85c.35.93.66,1.88.9,2.87,3.08,12.33-5.59,27.45-7.41,30.45l82.34,1.84v-36Z"/>
          <path class="cls-1" d="M174.49,271.99c.53-.88,1.09-1.9,1.65-3.02-.94.37-1.94.57-2.95.57-1.32,0-2.65-.33-3.88-1.01-3.86-2.15-5.25-7.02-3.1-10.88.65-1.17,1.2-2.17,1.67-3.06-1.65,1.91-4.17,3.01-6.87,2.72-4.4-.45-7.59-4.39-7.13-8.78.03-.31.08-.68.16-1.09l-23.74.27c.24.7.46,1.41.64,2.15,2.74,10.96-3.81,24.13-6.58,29.02l49.95,1.12c-1.32-2.43-1.35-5.47.19-8Z"/>
        </g>
      </g>
      <g>
        <path class="cls-2" d="M162.44,31.67s-8.53,3.25-12.6,5.65c-5.98,3.53-7.3,6.94-10.96,10.59-1.83-5.49-3.46-9.2-4.75-11.68-1.08-2.08.43-4.56,2.78-4.56h25.53Z"/>
        <path class="cls-2" d="M105.14,63.41l-6.91,22.56-28.76-2.76c.8-3.94,2.6-10.52,6.34-15.33,5.19-9.21,29.33-4.47,29.33-4.47Z"/>
        <path class="cls-1" d="M257,185.33l-13.97-5.68,8.28-17.87-37.66,16.25c-7.34-35.97-22.85-94.38-22.85-94.38,0,0,2.5-11.37,12.25-21.93,9.39-10.18,3.25-23.55,3.25-30.05,0-8.65,20.48-27.54,25.08-31.67-2.56,2.09-10.87,7.46-29.14,8.12,0,0-64.67,0-70.35,3.24-3,1.71-17.89,22.31-17.89,22.31l-.42.12s-49.54,0-55.23,4.06c-15.19,10.85.76,35.63,7.69,45.03l3.43.33c.8-3.94,2.6-10.52,6.34-15.33,5.19-9.21,29.33-4.47,29.33-4.47l-6.91,22.56,28.6,2.75c1.1.1,1.9,1.08,1.8,2.18-.1,1.02-.94,1.78-1.94,1.8-.08,0-.16.01-.24,0l-106.41-10.22c-2.03-.2-3.17,2.28-1.69,3.69l15.76,15.03c.38.36.61.87.62,1.4,0,.53-.19,1.04-.56,1.43l-13.63,14.25c-.83.87-.79,2.25.1,3.06l16.45,15.2c1.67,1.54,1.79,4.12.28,5.81l-8.94,10c-.92,1.03-.65,2.64.55,3.31l15.79,8.84c.52.3.89.81.99,1.41.1.59-.07,1.2-.46,1.65l-7.91,9.03c-.91,1.05-.61,2.68.62,3.32l12.39,6.5c.48.25.84.68.99,1.19.16.52.1,1.08-.17,1.55l-7.8,14.05c-.89,1.6.51,3.52,2.31,3.15l82.95-16.88c.11-.03.23-.04.35-.04.95-.03,1.81.63,2,1.6.22,1.08-.47,2.14-1.56,2.36l-43.15,8.78c.18.21.34.42.52.63,4.9,5.63,13.17,9.11,27.44,11.14l-5.62,22.62c-2.77.15-5.62.92-8.4,2.32l-.27.14c-5.55,3.33-6.6,8.05-6.79,9.93-.23,2.19,1.36,4.16,3.56,4.39s4.16-1.37,4.39-3.57c.06-.52.42-2.31,2.83-3.81,1.6-.78,3.2-1.25,4.75-1.38,1.24,5.58.29,7.87-3.68,15.02-1.07,1.93-.38,4.36,1.55,5.44.62.34,1.28.5,1.94.5,1.41,0,2.77-.74,3.5-2.05,3.6-6.47,5.27-10.37,5.19-15.17.92,1.24,1.62,2.73,2.05,4.44,1.66,6.64-3.79,17.64-6.03,21.32-1.15,1.88-.55,4.34,1.33,5.49.65.4,1.37.59,2.08.59,1.35,0,2.67-.68,3.42-1.91,1-1.65,9.73-16.37,6.97-27.42-1.48-5.9-5.05-10.42-10.07-12.73l-.42-.18,5.73-23.04c4.03.38,8.44.68,13.28.91,13.39.64,29.16.36,43.22-1.27l-5.48,22.04c-2.77.15-5.62.92-8.4,2.32l-.27.14c-5.55,3.33-6.6,8.05-6.79,9.93-.23,2.19,1.37,4.16,3.56,4.39,2.2.23,4.17-1.37,4.39-3.57.06-.52.42-2.31,2.83-3.81,1.61-.78,3.21-1.25,4.75-1.38,1.24,5.58.3,7.87-3.68,15.02-1.07,1.93-.38,4.36,1.55,5.44.62.34,1.28.5,1.94.5,1.41,0,2.77-.74,3.5-2.05,3.6-6.47,5.28-10.37,5.19-15.18.93,1.24,1.63,2.74,2.06,4.45,1.65,6.64-3.8,17.64-6.03,21.32-1.16,1.88-.56,4.34,1.32,5.49.65.4,1.37.59,2.08.59,1.35,0,2.67-.68,3.42-1.91,1.01-1.65,9.73-16.37,6.97-27.42-1.48-5.9-5.05-10.42-10.07-12.73-.14-.06-.28-.12-.42-.18l6.12-24.61c13.72-2.32,24.69-6.2,28.29-12.16l41.38,6.09-14.62-16.22,14.62-5.69ZM149.84,37.32c-5.98,3.53-7.3,6.94-10.96,10.59-1.83-5.49-3.46-9.2-4.75-11.68-1.08-2.08.43-4.56,2.78-4.56h25.53s-8.53,3.25-12.6,5.65Z"/>
      </g>
    </g>
  </g>
</svg>